<?xml version="1.0" encoding="UTF-8"?>
<svg version="1.1" xmlns="http://www.w3.org/2000/svg" xmlns:xlink="http://www.w3.org/1999/xlink" x="0px" y="0px" viewBox="0 0 512 512" style="enable-background:new 0 0 512 512;" xml:space="preserve">
<rect x="93.867" y="76.8" style="fill:#E5E5E5;" width="324.267" height="170.667" />
<polygon style="fill:#CFCFCF;" points="282.547,8.533 229.453,8.533 221.867,76.8 290.133,76.8 " />
<rect x="196.267" style="fill:#CFCFCF;" width="119.467" height="17.067" />
<rect x="247.467" y="102.4" style="fill:#4398D1;" width="17.067" height="17.067" />
<rect x="213.333" y="102.4" style="fill:#4398D1;" width="17.067" height="17.067" />
<rect x="179.2" y="102.4" style="fill:#4398D1;" width="17.067" height="17.067" />
<rect x="145.067" y="102.4" style="fill:#4398D1;" width="17.067" height="17.067" />
<rect x="281.6" y="102.4" style="fill:#4398D1;" width="17.067" height="17.067" />
<rect x="315.733" y="102.4" style="fill:#4398D1;" width="17.067" height="17.067" />
<rect x="349.867" y="102.4" style="fill:#4398D1;" width="17.067" height="17.067" />
<rect x="110.933" y="102.4" style="fill:#4398D1;" width="17.067" height="17.067" />
<rect x="384" y="102.4" style="fill:#4398D1;" width="17.067" height="17.067" />
<rect x="247.467" y="136.533" style="fill:#4398D1;" width="17.067" height="17.067" />
<rect x="213.333" y="136.533" style="fill:#4398D1;" width="17.067" height="17.067" />
<rect x="179.2" y="136.533" style="fill:#4398D1;" width="17.067" height="17.067" />
<rect x="145.067" y="136.533" style="fill:#4398D1;" width="17.067" height="17.067" />
<rect x="281.6" y="136.533" style="fill:#4398D1;" width="17.067" height="17.067" />
<rect x="315.733" y="136.533" style="fill:#4398D1;" width="17.067" height="17.067" />
<rect x="349.867" y="136.533" style="fill:#4398D1;" width="17.067" height="17.067" />
<rect x="110.933" y="136.533" style="fill:#4398D1;" width="17.067" height="17.067" />
<rect x="384" y="136.533" style="fill:#4398D1;" width="17.067" height="17.067" />
<rect x="145.067" y="170.667" style="fill:#4398D1;" width="17.067" height="17.067" />
<rect x="349.867" y="170.667" style="fill:#4398D1;" width="17.067" height="17.067" />
<rect x="110.933" y="170.667" style="fill:#4398D1;" width="17.067" height="17.067" />
<rect x="384" y="170.667" style="fill:#4398D1;" width="17.067" height="17.067" />
<rect x="196.267" y="34.133" style="fill:#CFCFCF;" width="34.133" height="17.067" />
<rect x="281.6" y="34.133" style="fill:#CFCFCF;" width="34.133" height="17.067" />
<rect x="162.133" y="17.067" style="fill:#CFCFCF;" width="17.067" height="59.733" />
<rect x="332.8" y="17.067" style="fill:#CFCFCF;" width="17.067" height="59.733" />
<rect x="128" y="17.067" style="fill:#CFCFCF;" width="17.067" height="59.733" />
<rect x="366.933" y="17.067" style="fill:#CFCFCF;" width="17.067" height="59.733" />
<path style="fill:#DE4C3C;" d="M173.508,494.199c16.247,12.356,38.75,12.356,54.997,0c7.552-5.769,16.734-8.977,26.231-9.173 l0.111-32.759H104.423c4.122,6.443,8.354,12.8,12.8,19.055l14.276,15.932C145.784,482.458,161.519,485.06,173.508,494.199z"/>
<path style="fill:#146AA8;" d="M255.71,208.768l0.171-47.846c-12.527,0.009-24.951,2.321-36.642,6.827L34.133,238.933 c5.163,75.878,29.329,149.248,70.289,213.333h150.426L255.71,208.768z"/>
<path style="fill:#126099;" d="M254.848,452.267h152.747c31.471-49.161,53.103-103.953,63.701-161.348 c3.191-17.186,5.385-34.543,6.571-51.985L292.762,167.74c-11.733-4.514-24.192-6.827-36.762-6.827h-0.119l-0.171,47.846 L254.848,452.267z"/>
<path style="fill:#CF4737;" d="M407.578,452.267H254.831l-0.111,32.759c10.359-0.358,20.523,2.884,28.757,9.173 c16.247,12.356,38.75,12.356,54.997,0c11.989-9.122,27.725-11.716,42.01-6.912l14.268-15.966 C399.224,465.067,403.456,458.709,407.578,452.267z"/>
<path style="fill:#4398D1;" d="M310.989,512c-11.836,0.034-23.347-3.874-32.725-11.093c-13.158-10.001-31.369-10.001-44.527,0 c-19.337,14.72-46.123,14.72-65.459,0c-13.15-10.035-31.386-10.035-44.535,0c-19.328,14.72-46.114,14.72-65.442,0 c-13.158-10.001-31.377-10.001-44.535,0L3.303,487.424c19.337-14.72,46.114-14.72,65.451,0c13.15,10.018,31.377,10.018,44.527,0 c19.337-14.72,46.123-14.72,65.459,0c13.158,10.018,31.377,10.018,44.535,0c19.337-14.72,46.114-14.72,65.451,0 c13.15,10.018,31.377,10.018,44.527,0c19.337-14.72,46.123-14.72,65.459,0c13.158,10.018,31.377,10.018,44.535,0 c19.337-14.72,46.114-14.72,65.451,0l-10.462,13.483c-13.158-10.001-31.377-10.001-44.535,0c-19.337,14.72-46.114,14.72-65.451,0 c-13.15-10.035-31.386-10.035-44.535,0C334.336,508.134,322.825,512.034,310.989,512z"/>
</svg>
